<?xml version="1.0" encoding="UTF-8"?>
<svg xmlns="http://www.w3.org/2000/svg" viewBox="0 0 1000 1000">
  <defs>
    <style>
      .cls-2 {
        fill: #303030;
      }
    </style>
  </defs>
  <g id="large-node" data-name="NODO 1 LARGO">
    <path class="cls-2" d="M644.07,197.53c-19.41-36.84-61.28-51.17-100.66-38.25-36.09,11.84-60.47,42.92-58.3,80.98.63,11.17,2.66,21.79,6.37,32.96,21.64,65.22-17.02,134.75-86.4,149.94-12.81,2.8-24.6,7.65-34.78,14.3-29.35,14.26-48.19,42.45-46.28,76.11.63,11.17,2.66,21.79,6.37,32.96,21.64,65.22-17.02,134.75-86.4,149.94-41,8.98-71.63,38.86-72.01,82.01-.36,40.12,29.07,73.12,70.05,78.44,33.18,4.3,66.04-8.97,83.12-37.91,26.35-44.65-5.89-72.99,1.49-129.43,6.59-50.37,44.29-82.25,92.82-93.52,12.16-2.82,23.74-6.5,34.62-12.72,20.19-11.54,32.61-29,37.58-48.54,15.77-38.69-10.69-66.82-3.92-118.53,6.59-50.37,44.29-82.25,92.82-93.52,12.16-2.82,23.74-6.5,34.62-12.72,41.37-23.64,50.19-72.12,28.91-112.5Z"/>
  </g>
  <g id="short-node" data-name="NOSO CORTO 2">
    <path class="cls-2" d="M733.38,714.17c28.01,30.83,58.8,26.69,71.41,62.27,8.17,23.06.28,47.29-17.55,63.36-22.02,19.84-54.1,20.23-76.28.99-23.86-20.7-26.26-51.6-12.19-78.24,23.81-45.08,3.06-99.2-43.34-118.35-7.95-3.28-14.81-7.22-21.33-12.17-22.21-16.89-28.19-44.95-17.99-70.27,11.12-27.63,38.58-43.68,68.14-36.78,32.4,7.56,55.3,35.39,49.23,69.2-1.6,8.89-4.94,16.96-9.02,24.93-16.3,31.84-16.08,67.56,8.92,95.07Z"/>
  </g>
  <g id="dot">
    <path class="cls-2" d="M609.11,480.05c-24.3,1.85-46.39-11.87-54.31-34.44-4.39-12.52-3.53-25.78,2.86-37.22,15.48-27.73,51.16-37.8,76.95-18.43,13.94,10.46,20.78,27.93,19.13,45.78-2.22,24.05-19.71,42.41-44.63,44.31Z"/>
  </g>
</svg>